<?xml version="1.0" encoding="utf-8"?>
<!DOCTYPE svg PUBLIC "-//W3C//DTD SVG 1.1//EN" "http://www.w3.org/Graphics/SVG/1.1/DTD/svg11.dtd">
<svg version="1.1" id="Layer_1" xmlns="http://www.w3.org/2000/svg" xmlns:xlink="http://www.w3.org/1999/xlink" x="0px" y="0px"
	 width="64px" height="64px" viewBox="0 0 56.689 56.689" enable-background="new 0 0 56.689 56.689" xml:space="preserve">
<path fill="none" stroke="#533834" stroke-width="2" stroke-linecap="round" stroke-linejoin="round" stroke-miterlimit="10" d="
	M52.21,27.924c0.576-2.78-0.386-5.516-2.298-7.343c0.369-0.674,0.648-1.413,0.812-2.205c0.889-4.289-1.868-8.485-6.156-9.374
	c-2.835-0.587-5.624,0.425-7.45,2.413c0.495-4.053-2.188-7.875-6.258-8.718c-4.289-0.889-8.485,1.868-9.374,6.156
	c-0.46,2.22,0.063,4.411,1.263,6.135c-0.596,0.582-1.098,1.266-1.491,2.025c-0.434-0.175-0.887-0.32-1.362-0.419
	c-4.289-0.889-8.485,1.868-9.374,6.156c-0.889,4.289,1.868,8.485,6.156,9.374c2.335,0.484,4.628-0.13,6.388-1.467
	c1.298,3.758,4.474,6.762,8.65,7.627c4.448,0.921,8.82-0.83,11.474-4.151C47.353,34.805,51.346,32.094,52.21,27.924z"/>
<path fill="none" stroke="#533834" stroke-width="2" stroke-linecap="round" stroke-linejoin="round" stroke-miterlimit="10" d="
	M19.247,32.505c0,0-1.138,8.719-9.771,17.181l5.301,4.989c0,0,5.678-17.026,14.5-16.909"/>
</svg>
