<?xml version="1.0" encoding="utf-8"?>
<!DOCTYPE svg PUBLIC "-//W3C//DTD SVG 1.1//EN" "http://www.w3.org/Graphics/SVG/1.1/DTD/svg11.dtd">
<svg version="1.1" id="Layer_1" xmlns="http://www.w3.org/2000/svg" xmlns:xlink="http://www.w3.org/1999/xlink" x="0px" y="0px"
	 width="64px" height="64px" viewBox="0 0 56.689 56.689" enable-background="new 0 0 56.689 56.689" xml:space="preserve">
<path fill="none" stroke="#533834" stroke-width="2" stroke-linejoin="round" stroke-miterlimit="10" d="M36.379,53.189H21.456
	c-3.746,0-6.783-3.037-6.783-6.783V18.293l6.136-8.971h16.217l6.136,8.971v28.112C43.162,50.152,40.125,53.189,36.379,53.189z"/>
<path fill="none" stroke="#533834" stroke-width="2" stroke-linejoin="round" stroke-miterlimit="10" d="M39.364,9.322H18.472
	c-1.246,0-2.255-1.01-2.255-2.255l0,0c0-1.246,1.01-2.255,2.255-2.255h20.892c1.246,0,2.255,1.01,2.255,2.255l0,0
	C41.619,8.312,40.609,9.322,39.364,9.322z"/>
<path fill="none" stroke="#533834" stroke-width="2" stroke-linejoin="round" stroke-miterlimit="10" d="M14.673,26.476h28.489"/>
</svg>
