<?xml version="1.0" encoding="utf-8"?>
<!DOCTYPE svg PUBLIC "-//W3C//DTD SVG 1.1//EN" "http://www.w3.org/Graphics/SVG/1.1/DTD/svg11.dtd">
<svg version="1.1" id="Layer_1" xmlns="http://www.w3.org/2000/svg" xmlns:xlink="http://www.w3.org/1999/xlink" x="0px" y="0px"
	 width="64px" height="64px" viewBox="0 0 56.689 56.689" enable-background="new 0 0 56.689 56.689" xml:space="preserve">
<path fill="none" stroke="#533834" stroke-width="2" stroke-linecap="round" stroke-linejoin="round" stroke-miterlimit="10" d="
	M13.897,39.467c0-2.152-1.897-3.897-3.897-3.897v-9.092c2,0,2.969-1.329,2.969-2.969S12,20.54,10,20.54V7.365l15.939-4.268L48,7.365
	V20.54c-2,0-2.969,1.329-2.969,2.969S46,26.478,48,26.478v23.009l-4.824,0.919c-0.57-1.968-2.397-3.416-4.549-3.416
	c-2.609,0-4.739,2.115-4.739,4.724c0,0.16,0.024,0.311,0.039,0.466l-6.934,1.389L10,49.487v-6.123
	C12,43.363,13.897,41.619,13.897,39.467z M43.235,15.53c0-1.435-1.163-2.598-2.598-2.598c-1.435,0-2.598,1.163-2.598,2.598
	s1.163,2.598,2.598,2.598C42.072,18.127,43.235,16.964,43.235,15.53z M39.338,35.941c1.845,0,3.34-1.495,3.34-3.34
	c0-1.845-1.495-3.34-3.34-3.34s-3.34,1.495-3.34,3.34C35.998,34.446,37.494,35.941,39.338,35.941z M26.72,10.334
	c-0.82,0-1.484,0.665-1.484,1.484s0.665,1.484,1.484,1.484c0.82,0,1.484-0.665,1.484-1.484S27.54,10.334,26.72,10.334z
	 M27.648,44.291c1.742,0,3.155-1.412,3.155-3.154s-1.412-3.154-3.155-3.154c-1.742,0-3.154,1.412-3.154,3.154
	S25.906,44.291,27.648,44.291z M24.122,25.55c1.947,0,3.526-1.578,3.526-3.526s-1.578-3.526-3.526-3.526
	c-1.947,0-3.526,1.578-3.526,3.526S22.175,25.55,24.122,25.55z"/>
</svg>
