<?xml version="1.0" encoding="utf-8"?>
<!DOCTYPE svg PUBLIC "-//W3C//DTD SVG 1.1//EN" "http://www.w3.org/Graphics/SVG/1.1/DTD/svg11.dtd">
<svg version="1.1" id="Layer_1" xmlns="http://www.w3.org/2000/svg" xmlns:xlink="http://www.w3.org/1999/xlink" x="0px" y="0px"
	 width="64px" height="64px" viewBox="0 0 56.689 56.689" enable-background="new 0 0 56.689 56.689" xml:space="preserve">
<g display="none">
	<path display="inline" fill="none" stroke="#533834" stroke-width="2" stroke-linecap="round" stroke-miterlimit="10" d="
		M52.135,41.783c0.792,0.792,0.747,2.1-0.107,2.824c-10.301,8.736-26.399,8.173-36.793-1.745C5.123,33.214,4.75,16.595,13.492,6.093
		c0.721-0.864,2.038-0.917,2.835-0.121L52.135,41.783z"/>
	<path display="inline" fill="none" stroke="#533834" stroke-width="2" stroke-miterlimit="1" d="M53.024,43.438
		c-10.561,6.491-24.469,4.606-33.714-4.639c-9.244-9.245-10.891-22.917-4.652-33.728"/>
	
		<line display="inline" fill="none" stroke="#533834" stroke-width="2" stroke-linecap="round" stroke-miterlimit="10" x1="33.546" y1="25.227" x2="26.086" y2="32.687"/>
	
		<line display="inline" fill="none" stroke="#533834" stroke-width="2" stroke-linecap="round" stroke-miterlimit="10" x1="37.954" y1="28.281" x2="35.921" y2="41.167"/>
	
		<line display="inline" fill="none" stroke="#533834" stroke-width="2" stroke-linecap="round" stroke-miterlimit="10" x1="30.494" y1="20.817" x2="17.608" y2="22.853"/>
</g>
<polyline display="none" fill="none" stroke="#533834" stroke-width="2" stroke-miterlimit="10" points="7.657,29.477 7.657,49.863 
	48.73,49.863 48.73,29.477 "/>
<line display="none" fill="none" stroke="#533834" stroke-width="2" stroke-miterlimit="10" x1="7.657" y1="36.458" x2="48.73" y2="36.458"/>
<line display="none" fill="none" stroke="#533834" stroke-width="2" stroke-miterlimit="10" x1="7.657" y1="41.417" x2="48.73" y2="41.417"/>
<path display="none" fill="none" stroke="#533834" stroke-width="2" stroke-miterlimit="10" d="M7.657,19.478H48.73
	c0,0,3.179,0.827,4.006,3.815s-1.399,5.595-3.433,6.04c-2.035,0.445-3.942,0.16-5.786-2.018s-2.607-3.005-4.069-0.906
	c-1.462,2.098-1.971,3.155-4.832,3.103s-3.688-1.959-4.705-3.231s-2.035-1.717-3.179-0.254c-1.144,1.462-1.907,3.413-4.641,3.487
	s-3.751-1.325-5.277-3.296s-2.67-0.476-3.815,1.097c-1.144,1.573-2.225,2.576-4.959,2.202S3.717,26.79,3.78,24.12
	S6.576,19.795,7.657,19.478z"/>
<line display="none" fill="none" stroke="#533834" stroke-width="2" stroke-miterlimit="10" x1="28.193" y1="11.357" x2="28.193" y2="19.478"/>
<circle display="none" fill="none" stroke="#533834" stroke-width="2" stroke-miterlimit="10" cx="28.095" cy="8.261" r="3.417"/>
<path fill="none" stroke="#533834" stroke-width="2" stroke-miterlimit="10" d="M31.347,30.422l4.418-5.508
	c3.563,1.597,8.396,0.28,11.975-4.176c4.134-5.147,4.574-11.657,0.984-14.54c-3.59-2.883-9.852-1.049-13.985,4.098
	c-3.378,4.205-3.985,8.738-2.137,11.828l-4.435,4.928c-0.679-0.821-1.486-1.906-1.552-2.495c-0.116-1.028,0.879-2.841,0.793-4.276
	s0.322-1.713-6.1-8.309c-6.421-6.596-7.47-7.431-7.47-7.431l-2.123,2.006l7.693,7.984c0,0,2.456,2.089,0.819,3.494
	c-0.881,0.756-2.167-0.095-3.203-1.225c-1.036-1.131-7.59-8.078-7.59-8.078l-2.21,2.025c0,0,4.142,4.57,5.819,6.268
	c1.648,1.669,4.114,3.589,3.119,4.828c-1.004,1.25-2.321,0.473-3.879-1.125s-7.188-8.144-7.188-8.144l-2.498,2.289l9.007,10.656
	c0,0,3.275,4.09,5.493,4.138s3.968-1.432,5.646-0.322c0.378,0.25,1.044,0.863,1.863,1.675L9.967,47.272c0,0-1.837,2.148-2.122,2.87
	c-0.358,0.908-0.471,1.926,0.997,3.274c1.803,1.654,2.765,0.976,3.245,0.628c0.891-0.644,2.421-2.63,2.421-2.63L28.02,34.57
	c2.332,2.504,4.782,5.231,6.044,6.608c2.496,2.724,10.912,11.585,11.656,12.322s2.317,1.469,3.725,0.557s1.88-2.667,0.805-4.047
	C49.398,48.916,36.605,35.803,31.347,30.422z"/>
</svg>
