<?xml version="1.0" encoding="utf-8"?>
<!DOCTYPE svg PUBLIC "-//W3C//DTD SVG 1.1//EN" "http://www.w3.org/Graphics/SVG/1.1/DTD/svg11.dtd">
<svg version="1.1" id="Layer_1" xmlns="http://www.w3.org/2000/svg" xmlns:xlink="http://www.w3.org/1999/xlink" x="0px" y="0px"
	 width="64px" height="64px" viewBox="0 0 56.689 56.689" enable-background="new 0 0 56.689 56.689" xml:space="preserve">
<path fill="none" stroke="#533834" stroke-width="2" stroke-linecap="round" stroke-linejoin="round" stroke-miterlimit="10" d="
	M23.742,20.45l-8.915-9.498l-2.65-4.699C11.34,4.768,9.426,4.209,9.135,5.364L8.903,6.282C8.492,7.909,7.412,9.049,5.83,9.526
	l-1.588,0.479c-1.116,0.336-0.516,2.24,0.961,3.048l4.454,2.439l10.064,9.464c1.752,1.648,2.535,4.052,2.181,6.43
	c-0.723,4.854,1.454,10.483,5.939,14.968c6.645,6.645,14.197,9.866,21.139,2.925c6.941-6.941,3.578-14.352-3.067-20.997
	c-4.577-4.577-10.579-6.528-15.483-5.688C27.967,23.015,25.452,22.271,23.742,20.45z"/>
<path fill="none" stroke="#533834" stroke-width="2" stroke-linecap="round" stroke-linejoin="round" stroke-miterlimit="10" d="
	M46.551,46.988c4.809-4.809,2.479-9.943-2.125-14.547"/>
</svg>
