<?xml version="1.0" encoding="utf-8"?>
<!DOCTYPE svg PUBLIC "-//W3C//DTD SVG 1.1//EN" "http://www.w3.org/Graphics/SVG/1.1/DTD/svg11.dtd">
<svg version="1.1" id="Layer_1" xmlns="http://www.w3.org/2000/svg" xmlns:xlink="http://www.w3.org/1999/xlink" x="0px" y="0px"
	 width="64px" height="64px" viewBox="0 0 56.689 56.689" enable-background="new 0 0 56.689 56.689" xml:space="preserve">
<g display="none">
	<path display="inline" fill="none" stroke="#533834" stroke-width="2" stroke-miterlimit="10" d="M9.297,26.951
		c-0.391-0.587,0.029-1.372,0.736-1.372h36.444c0.706,0,1.127,0.785,0.734,1.372L29.706,52.194
		c-0.702,1.013-2.201,1.013-2.903,0.001L9.297,26.951z"/>
	<path display="inline" fill="none" stroke="#533834" stroke-width="2" stroke-miterlimit="10" d="M18.538,13.422
		c0.114-5.511,4.619-9.943,10.157-9.943c5.611,0,10.16,4.561,10.16,10.17c0,0.018,0,0,0,0"/>
	<path display="inline" fill="none" stroke="#533834" stroke-width="2" stroke-miterlimit="10" d="M28.255,16.528
		c1.855-2.041,4.531-3.32,7.508-3.32c1.078,0,2.12,0.167,3.093,0.484c4.098,1.299,7.067,5.142,7.067,9.674
		c0,0.76-0.08,1.502-0.239,2.209"/>
	<path display="inline" fill="none" stroke="#533834" stroke-width="2" stroke-miterlimit="10" d="M10.825,25.575
		c-0.159-0.707-0.238-1.449-0.238-2.209c0-4.851,3.402-8.914,7.951-9.921c0.705-0.159,1.447-0.237,2.208-0.237
		c2.977,0,5.652,1.279,7.509,3.32c1.643,1.803,2.649,4.196,2.649,6.838c0,0.07,0,0.133,0,0.203c-0.018,0.69-0.098,1.36-0.237,2.006"
		/>
</g>
<g>
	
		<circle fill="none" stroke="#533834" stroke-width="2" stroke-linecap="round" stroke-miterlimit="10" cx="23.697" cy="20.523" r="4.647"/>
	<path fill="none" stroke="#533834" stroke-width="2" stroke-linecap="round" stroke-miterlimit="10" d="M33.209,25.163h0.008
		c1.208-0.055,2.293-0.573,3.082-1.379"/>
	<path fill="none" stroke="#533834" stroke-width="2" stroke-linecap="round" stroke-miterlimit="10" d="M37.43,21.909
		c0.139-0.441,0.209-0.907,0.209-1.386c0-2.564-2.084-4.649-4.648-4.649c-2.564,0-4.647,2.084-4.647,4.649
		c0,1.626,0.837,3.059,2.1,3.88"/>
	<path fill="none" stroke="#533834" stroke-width="2" stroke-linecap="round" stroke-miterlimit="10" d="M40.954,29.811h0.008
		c2.463-0.117,4.423-2.154,4.423-4.641c0-2.564-2.084-4.647-4.647-4.647c-1.294,0-2.464,0.527-3.307,1.386
		c-0.519,0.519-0.906,1.162-1.131,1.874c-0.139,0.442-0.208,0.906-0.208,1.386c0,1.626,0.837,3.059,2.099,3.88"/>
	<path fill="none" stroke="#533834" stroke-width="2" stroke-linecap="round" stroke-miterlimit="10" d="M27.833,32.715
		c0.782,0.619,1.766,0.975,2.835,0.975c1.294,0,2.463-0.527,3.307-1.386c0.519-0.52,0.906-1.163,1.131-1.875
		c0.139-0.441,0.209-0.906,0.209-1.386c0-1.627-0.837-3.059-2.099-3.88c-0.728-0.489-1.603-0.767-2.549-0.767
		c-0.078,0-0.155,0-0.224,0.008c-1.704,0.077-3.168,1.085-3.911,2.517"/>
	<path fill="none" stroke="#533834" stroke-width="2" stroke-linecap="round" stroke-miterlimit="10" d="M34.974,36.804
		c-0.751-0.821-1.208-1.913-1.208-3.114c0-0.481,0.07-0.944,0.209-1.386"/>
	<path fill="none" stroke="#533834" stroke-width="2" stroke-linecap="round" stroke-miterlimit="10" d="M35.106,30.429
		c0.79-0.805,1.874-1.324,3.083-1.378c0.069-0.008,0.147-0.008,0.225-0.008c0.945,0,1.812,0.278,2.54,0.768h0.008
		c1.262,0.82,2.099,2.253,2.099,3.88c0,2.448-1.898,4.463-4.307,4.632"/>
	<path fill="none" stroke="#533834" stroke-width="2" stroke-linecap="round" stroke-miterlimit="10" d="M24.557,37.462
		c0.411-2.145,2.301-3.772,4.562-3.772c2.138,0,3.95,1.456,4.485,3.425c0.108,0.386,0.163,0.796,0.163,1.224
		c0,1.958-1.216,3.641-2.936,4.321c-0.527,0.209-1.107,0.324-1.712,0.324c-0.883,0-1.712-0.247-2.409-0.673"/>
	<path fill="none" stroke="#533834" stroke-width="2" stroke-linecap="round" stroke-miterlimit="10" d="M21.056,36.921
		c0.209-0.519,0.318-1.085,0.318-1.681c0-0.225-0.016-0.442-0.054-0.658c-0.194-1.418-1.038-2.626-2.215-3.331
		c-0.689-0.419-1.51-0.658-2.378-0.658c-2.564,0-4.647,2.083-4.647,4.648c0,2.564,2.084,4.647,4.647,4.647
		c0.38,0,0.744-0.046,1.092-0.131"/>
	
		<circle fill="none" stroke="#533834" stroke-width="2" stroke-linecap="round" stroke-miterlimit="10" cx="22.148" cy="41.437" r="4.647"/>
	<path fill="none" stroke="#533834" stroke-width="2" stroke-linecap="round" stroke-miterlimit="10" d="M30.831,42.66h0.008
		c0.526,1.968,2.339,3.423,4.476,3.423c2.564,0,4.647-2.083,4.647-4.647c0-1.201-0.457-2.294-1.209-3.114
		c-0.844-0.944-2.076-1.534-3.439-1.534c-0.116,0-0.232,0.009-0.341,0.015c-0.48,0.031-0.945,0.14-1.371,0.311"/>
	
		<circle fill="none" stroke="#533834" stroke-width="2" stroke-linecap="round" stroke-miterlimit="10" cx="28.344" cy="48.407" r="4.647"/>
	<path fill="none" stroke="#533834" stroke-width="2" stroke-linecap="round" stroke-miterlimit="10" d="M21.319,34.582
		c0.689,0.419,1.51,0.658,2.377,0.658c1.797,0,3.362-1.03,4.136-2.525c0.325-0.636,0.511-1.355,0.511-2.123
		c0-1.495-0.712-2.835-1.812-3.672v-0.008c-0.783-0.612-1.767-0.968-2.835-0.968c-1.293,0-2.463,0.527-3.307,1.386
		c-0.518,0.519-0.906,1.162-1.13,1.874c-0.14,0.442-0.21,0.906-0.21,1.387c0,0.223,0.016,0.44,0.054,0.658"/>
	<path fill="none" stroke="#533834" stroke-width="2" stroke-linecap="round" stroke-miterlimit="10" d="M20.39,27.331
		c0.139-0.441,0.209-0.907,0.209-1.386c0-2.564-2.084-4.647-4.647-4.647c-2.564,0-4.647,2.083-4.647,4.647
		c0,2.564,2.083,4.648,4.647,4.648c1.293,0,2.463-0.527,3.308-1.387"/>
	<path fill="none" stroke="#533834" stroke-width="2" stroke-linecap="round" stroke-linejoin="round" stroke-miterlimit="10" d="
		M28.344,17.037v-4.096c0-1.051,0.594-2.01,1.533-2.48l0.033-0.016c0.939-0.47,1.533-1.431,1.533-2.481V3.869"/>
</g>
</svg>
